<svg width="780" height="500" xmlns="http://www.w3.org/2000/svg" xml:space="preserve" version="1.1" enable-background="new 0 0 780 500">

 <g>
  <title>Layer 1</title>
  <rect id="svg_1" fill="#2557D6" height="500" width="780"/>
  <path id="svg_2" fill="#ffffff" d="m0.253,235.69l37.441,0l8.442,-19.51l18.9,0l8.42,19.51l73.668,0l0,-14.915l6.576,14.98l38.243,0l6.576,-15.202l0,15.138l183.08,0l-0.085,-32.026l3.542,0c2.479,0.083 3.204,0.302 3.204,4.226l0,27.8l94.689,0l0,-7.455c7.639,3.92 19.518,7.455 35.148,7.455l39.836,0l8.525,-19.51l18.9,0l8.337,19.51l76.765,0l0,-18.532l11.626,18.532l61.515,0l0,-122.51l-60.88,0l0,14.468l-8.522,-14.468l-62.471,0l0,14.468l-7.828,-14.468l-84.38,0c-14.123,0 -26.539,1.889 -36.569,7.153l0,-7.153l-58.229,0l0,7.153c-6.383,-5.426 -15.079,-7.153 -24.75,-7.153l-212.74,0l-14.274,31.641l-14.659,-31.641l-67.005,0l0,14.468l-7.362,-14.468l-57.145,0l-26.539,58.246l0,64.261l0.003,0l0.002,0.002zm236.34,-17.67l-22.464,0l-0.083,-68.794l-31.775,68.793l-19.24,0l-31.858,-68.854l0,68.854l-44.57,0l-8.42,-19.592l-45.627,0l-8.505,19.592l-23.801,0l39.241,-87.837l32.559,0l37.269,83.164l0,-83.164l35.766,0l28.678,59.587l26.344,-59.587l36.485,0l0.001,87.838zm-165.9,-37.823l-14.998,-35.017l-14.915,35.017l29.913,0zm255.3,37.821l-73.203,0l0,-87.837l73.203,0l0,18.291l-51.289,0l0,15.833l50.06,0l0,18.005l-50.061,0l0,17.542l51.289,0l0.001,18.166zm103.16,-64.18c0,14.004 -9.755,21.24 -15.439,23.412c4.794,1.748 8.891,4.838 10.84,7.397c3.094,4.369 3.628,8.271 3.628,16.116l0,17.255l-22.104,0l-0.083,-11.077c0,-5.285 0.528,-12.886 -3.458,-17.112c-3.202,-3.09 -8.083,-3.76 -15.973,-3.76l-23.523,0l0,31.95l-21.914,0l0,-87.838l50.401,0c11.199,0 19.451,0.283 26.535,4.207c6.933,3.924 11.09,9.652 11.09,19.45zm-27.699,13.042c-3.013,1.752 -6.573,1.81 -10.841,1.81l-26.62,0l0,-19.51l26.982,0c3.818,0 7.804,0.164 10.393,1.584c2.842,1.28 4.601,4.003 4.601,7.765c0,3.84 -1.674,6.929 -4.515,8.351zm62.844,51.138l-22.358,0l0,-87.837l22.358,0l0,87.837zm259.56,0l-31.053,0l-41.535,-65.927l0,65.927l-44.628,0l-8.527,-19.592l-45.521,0l-8.271,19.592l-25.648,0c-10.649,0 -24.138,-2.257 -31.773,-9.715c-7.701,-7.458 -11.708,-17.56 -11.708,-33.533c0,-13.027 2.395,-24.936 11.812,-34.347c7.085,-7.01 18.18,-10.242 33.28,-10.242l21.215,0l0,18.821l-20.771,0c-7.997,0 -12.514,1.14 -16.862,5.203c-3.735,3.699 -6.298,10.69 -6.298,19.897c0,9.41 1.951,16.196 6.023,20.628c3.373,3.476 9.506,4.53 15.272,4.53l9.842,0l30.884,-69.076l32.835,0l37.102,83.081l0,-83.08l33.366,0l38.519,61.174l0,-61.174l22.445,0l0,87.833zm-133.2,-37.82l-15.165,-35.017l-15.081,35.017l30.246,0zm189.04,178.08c-5.322,7.457 -15.694,11.238 -29.736,11.238l-42.319,0l0,-18.84l42.147,0c4.181,0 7.106,-0.527 8.868,-2.175c1.665,-1.474 2.605,-3.554 2.591,-5.729c0,-2.561 -1.064,-4.593 -2.677,-5.811c-1.59,-1.342 -3.904,-1.95 -7.722,-1.95c-20.574,-0.67 -46.244,0.608 -46.244,-27.194c0,-12.742 8.443,-26.156 31.439,-26.156l43.649,0l0,-17.479l-40.557,0c-12.237,0 -21.129,2.81 -27.425,7.174l0,-7.175l-59.985,0c-9.595,0 -20.854,2.279 -26.179,7.175l0,-7.175l-107.12,0l0,7.175c-8.524,-5.892 -22.908,-7.175 -29.549,-7.175l-70.656,0l0,7.175c-6.745,-6.258 -21.742,-7.175 -30.886,-7.175l-79.077,0l-18.094,18.764l-16.949,-18.764l-118.13,0l0,122.59l115.9,0l18.646,-19.062l17.565,19.062l71.442,0.061l0,-28.838l7.021,0c9.479,0.14 20.66,-0.228 30.523,-4.312l0,33.085l58.928,0l0,-31.952l2.842,0c3.628,0 3.985,0.144 3.985,3.615l0,28.333l179.01,0c11.364,0 23.244,-2.786 29.824,-7.845l0,7.845l56.78,0c11.815,0 23.354,-1.587 32.134,-5.649l0.002,-22.84l0.009,0.004zm-354.94,-47.155c0,24.406 -19.005,29.445 -38.159,29.445l-27.343,0l0,29.469l-42.591,0l-26.984,-29.086l-28.042,29.086l-86.802,0l0,-87.859l88.135,0l26.961,28.799l27.875,-28.799l70.021,0c17.389,0 36.929,4.613 36.929,28.945zm-174.22,40.434l-53.878,0l0,-17.48l48.11,0l0,-17.926l-48.11,0l0,-15.974l54.939,0l23.969,25.604l-25.03,25.776zm86.81,10.06l-33.644,-35.789l33.644,-34.65l0,70.439zm49.757,-39.066l-28.318,0l0,-22.374l28.572,0c7.912,0 13.404,3.09 13.404,10.772c0,7.599 -5.238,11.602 -13.658,11.602zm148.36,-40.373l73.138,0l0,18.17l-51.315,0l0,15.973l50.062,0l0,17.926l-50.062,0l0,17.48l51.314,0.08l0,18.23l-73.139,0l0.002,-87.859zm-28.119,47.029c4.878,1.725 8.865,4.816 10.734,7.375c3.095,4.291 3.542,8.294 3.631,16.037l0,17.418l-22.002,0l0,-10.992c0,-5.286 0.531,-13.112 -3.542,-17.198c-3.201,-3.147 -8.083,-3.899 -16.076,-3.899l-23.42,0l0,32.09l-22.02,0l0,-87.859l50.594,0c11.093,0 19.173,0.47 26.366,4.146c6.915,4.004 11.266,9.487 11.266,19.511c-0.001,14.022 -9.764,21.178 -15.531,23.371zm-12.385,-11.107c-2.932,1.667 -6.556,1.811 -10.818,1.811l-26.622,0l0,-19.732l26.982,0c3.902,0 7.807,0.08 10.458,1.587c2.84,1.423 4.538,4.146 4.538,7.903c0,3.758 -1.699,6.786 -4.538,8.431zm197.82,5.597c4.27,4.229 6.554,9.571 6.554,18.613c0,18.9 -12.322,27.723 -34.425,27.723l-42.68,0l0,-18.84l42.51,0c4.157,0 7.104,-0.525 8.95,-2.175c1.508,-1.358 2.589,-3.333 2.589,-5.729c0,-2.561 -1.17,-4.592 -2.675,-5.811c-1.675,-1.34 -3.986,-1.949 -7.803,-1.949c-20.493,-0.67 -46.157,0.609 -46.157,-27.192c0,-12.744 8.355,-26.158 31.33,-26.158l43.932,0l0,18.7l-40.198,0c-3.984,0 -6.575,0.145 -8.779,1.587c-2.4,1.422 -3.29,3.534 -3.29,6.319c0,3.314 2.037,5.57 4.795,6.546c2.311,0.77 4.795,0.995 8.526,0.995l11.797,0.306c11.895,0.276 20.061,2.248 25.024,7.065zm86.955,-23.52l-39.938,0c-3.986,0 -6.638,0.144 -8.867,1.587c-2.312,1.423 -3.202,3.534 -3.202,6.322c0,3.314 1.951,5.568 4.791,6.544c2.312,0.771 4.795,0.996 8.444,0.996l11.878,0.304c11.983,0.284 19.982,2.258 24.86,7.072c0.891,0.67 1.422,1.422 2.033,2.175l0,-25l0.001,0z"/>
 </g>
</svg>