<svg width="750" height="470" xmlns="http://www.w3.org/2000/svg" version="1.1">
 <desc>Created with Sketch.</desc>

 <g>
  <title>Layer 1</title>
  <g fill-rule="evenodd" fill="none" id="Page-1">
   <g fill-rule="nonzero" id="elo">
    <path fill="#000000" id="Rectangle-1" d="m40,0l670,0c22.1,0 40,17.9 40,40l0,391c0,22.1 -17.9,40 -40,40l-670,0c-22.1,0 -40,-17.9 -40,-40l0,-391c0,-22.1 17.9,-40 40,-40z"/>
    <path fill="#FFF100" id="Shape" d="m150.7,170.6c6.8,-2.3 14.1,-3.5 21.7,-3.5c33.2,0 60.9,23.6 67.2,54.9l47,-9.6c-10.8,-53.2 -57.8,-93.3 -114.2,-93.3c-12.9,0 -25.3,2.1 -36.9,6l15.2,45.5z"/>
    <path fill="#00A3DF" id="Shape" d="m95.2,323l31.8,-36c-14.2,-12.6 -23.1,-30.9 -23.1,-51.4c0,-20.4 8.9,-38.8 23.1,-51.3l-31.8,-35.9c-24.1,21.4 -39.3,52.5 -39.3,87.3c0,34.7 15.2,65.9 39.3,87.3z"/>
    <path fill="#EE4023" id="Shape" d="m239.6,249.4c-6.4,31.3 -34,54.8 -67.2,54.8c-7.6,0 -14.9,-1.2 -21.8,-3.5l-15.2,45.5c11.6,3.9 24.1,6 37,6c56.4,0 103.4,-40 114.2,-93.2l-47,-9.6z"/>
    <g fill="#FFFFFF" id="Group">
     <path id="Shape" d="m443.2,281.6c-7.8,7.6 -18.3,12.2 -29.9,12c-8,-0.1 -15.4,-2.5 -21.6,-6.5l-15.6,24.8c10.7,6.7 23.2,10.7 36.8,10.9c19.7,0.3 37.7,-7.5 50.8,-20.2l-20.5,-21zm-28.2,-101.1c-39.2,-0.6 -71.6,30.8 -72.2,70c-0.2,14.7 4,28.5 11.5,39.9l128.8,-55.1c-7.2,-30.9 -34.8,-54.2 -68.1,-54.8zm-42.7,75.6c-0.2,-1.6 -0.3,-3.3 -0.3,-5c0.4,-23.1 19.4,-41.6 42.5,-41.2c12.6,0.2 23.8,5.9 31.3,14.9l-73.5,31.3zm151.3,-107.6l0,137.3l23.8,9.9l-11.3,27.1l-23.6,-9.8c-5.3,-2.3 -8.9,-5.8 -11.6,-9.8c-2.6,-4 -4.6,-9.6 -4.6,-17l0,-137.7l27.3,0z"/>
     <path id="Shape" d="m609.5,212c4.2,-1.4 8.6,-2.1 13.3,-2.1c20.3,0 37.1,14.4 41,33.5l28.7,-5.9c-6.6,-32.5 -35.3,-56.9 -69.7,-56.9c-7.9,0 -15.5,1.3 -22.5,3.6l9.2,27.8zm-33.9,92.9l19.4,-21.9c-8.7,-7.7 -14.1,-18.9 -14.1,-31.4c0,-12.5 5.5,-23.7 14.1,-31.3l-19.4,-21.9c-14.7,13 -24,32.1 -24,53.3c0,21.2 9.3,40.2 24,53.2zm88.2,-44.8c-3.9,19.1 -20.8,33.5 -41,33.5c-4.6,0 -9.1,-0.8 -13.3,-2.2l-9.3,27.8c7.1,2.4 14.7,3.7 22.6,3.7c34.4,0 63.1,-24.4 69.7,-56.9l-28.7,-5.9z"/>
    </g>
   </g>
  </g>
 </g>
</svg>