<svg width="512" height="222" xmlns="http://www.w3.org/2000/svg" preserveAspectRatio="xMidYMid" version="1.1">

 <g>
  <title>Layer 1</title>
  <g id="svg_1">
   <path id="svg_2" fill="#B82126" d="m140.55454,0l-53.0645,0c-23.44619,1.10859 -42.61181,10.55219 -48.1457,30.02636c-2.88555,10.1562 -4.47356,21.31043 -6.72993,31.8385c-11.47082,53.53286 -21.6421,108.53915 -32.61441,161.00262l413.12055,0c31.938,0 53.86654,-6.74902 59.79342,-32.0968c2.75287,-11.77536 5.39017,-25.1136 8.02445,-38.05082c10.26776,-50.44228 20.54456,-100.88154 31.06158,-152.71986l-371.44546,0"/>
   <path id="svg_3" fill="#FFFFFF" d="m353.69964,133.15313c-5.72938,5.60891 -21.81221,7.20213 -20.16678,-6.20524c1.36634,-11.1355 13.4897,-13.50174 26.63003,-11.89346c-0.97682,6.09079 -2.0972,13.82501 -6.46325,18.0987zm-18.0987,-43.43668c-0.54714,3.072 -1.38742,5.85186 -2.06808,8.79034c6.56063,-1.64442 26.98943,-6.68812 28.95812,2.06808c0.65355,2.90936 -0.47385,6.00044 -1.29305,8.27432c-18.47416,-1.74983 -33.53098,1.31916 -37.49045,14.47856c-2.65236,8.81443 0.29716,17.48831 5.94723,19.90977c10.88151,4.66121 24.11721,-0.67865 28.69911,-8.01531c-0.47586,2.53992 -0.92662,5.10494 -0.77603,8.27332l9.56637,0c0.10139,-9.16179 1.4346,-16.57776 2.84411,-24.82196c1.20169,-7.02043 3.46152,-13.97057 3.10211,-20.16678c-0.8212,-14.19043 -24.33004,-9.17082 -37.48944,-8.79034zm95.9227,47.83185c-7.48424,0.16062 -11.20577,-4.47147 -11.37644,-12.15147c-0.29816,-13.45054 5.60188,-28.39391 17.58168,-29.73415c5.57779,-0.62343 9.61656,0.67363 13.70353,2.06908c-3.75166,15.10802 -2.39737,39.44107 -19.90877,39.81654zm24.82096,-71.10174c-0.95272,8.35463 -2.2267,16.38902 -3.87715,24.04492c-27.27153,-8.63172 -43.99686,11.43266 -43.69669,36.1974c0.05923,4.78971 0.88345,9.53926 3.87915,12.9275c5.16217,5.8388 19.94391,7.23526 27.40606,2.32809c1.44565,-0.94971 2.92141,-2.67846 3.87915,-3.87815c0.71881,-0.90353 1.86127,-3.26676 2.06708,-2.5871c-0.39153,2.62525 -0.97782,5.05574 -1.03304,8.01631l10.08339,0c1.94259,-27.8769 7.95206,-51.68791 12.41048,-77.04897l-11.11843,0zm-284.66598,66.96558c-5.94824,6.29961 -20.57136,6.20323 -21.71784,-4.39617c-0.49995,-4.61202 1.21876,-9.44791 2.06808,-14.21955c0.85936,-4.82986 1.47777,-9.46397 2.32609,-13.70453c5.85888,-7.15394 23.07514,-8.01732 24.82196,3.87915c1.51592,10.32835 -2.57205,23.22372 -7.49829,28.4411zm8.79134,-43.69569c-9.40976,-3.5348 -20.87856,0.68468 -25.84998,4.69836c0.01707,0.17669 -0.11846,0.20078 -0.26503,0.21383c0.08533,-0.07128 0.17669,-0.14255 0.26503,-0.21383c-0.001,-0.01506 -0.002,-0.02811 -0.00602,-0.04417c0.08433,-1.72675 0.6917,-2.92844 0.77603,-4.65419l-9.56637,0c-3.98657,26.52261 -8.71404,52.30332 -13.70353,77.82401l11.11743,0c1.60929,-9.93983 2.67244,-20.42479 4.91319,-29.73315c2.53892,9.79024 19.11768,7.91893 26.11301,4.13716c14.43539,-7.80549 25.56888,-44.9546 6.20624,-52.22802zm52.74403,18.61572l-26.113,0c0.82623,-6.00345 6.22732,-12.60222 14.73656,-12.9275c8.00929,-0.30619 13.74369,2.94049 11.37644,12.9275zm-10.60041,-19.64975c-8.03338,0.61841 -14.8239,2.93044 -19.64975,8.0143c-5.91912,6.23636 -10.71285,20.02322 -9.30836,32.57826c2.00382,17.91197 24.30594,17.26946 42.14462,12.9275c0.30319,-3.14328 1.06416,-5.83078 1.55106,-8.79034c-7.3487,2.74974 -20.10754,6.58774 -27.66506,1.81007c-5.70629,-3.60809 -5.73942,-12.74478 -3.87815,-20.6848c11.98883,-0.38149 24.4495,-0.3082 36.4554,0c0.76198,-5.62798 2.94149,-11.76395 1.03404,-17.32266c-2.51583,-7.33867 -11.52,-9.23809 -20.6838,-8.53233zm-97.73276,1.03403c-0.30118,0.04317 -0.2811,0.4086 -0.25902,0.77503c-2.44956,18.32057 -5.76451,35.77676 -9.30735,53.00405l11.11743,0c2.67143,-18.44405 5.73138,-36.49857 9.56636,-53.77908l-11.11742,0zm290.09618,0.25801c-9.82638,-4.91219 -18.00633,3.33101 -21.20081,8.27332c0.90955,-2.53591 0.96176,-5.93117 1.80907,-8.53133l-9.82538,0c-2.64835,18.46614 -5.84283,36.38714 -9.56637,53.77908l11.37644,0c0.07228,-7.12784 1.47174,-12.40044 2.58509,-19.39175c2.37829,-14.9253 5.86792,-31.29424 23.27091,-26.37202c0.57725,-2.52486 0.81719,-5.38804 1.55105,-7.7573zm-124.88182,40.85158c-1.024,-2.64734 -1.29004,-7.01942 -1.03403,-10.3424c0.57524,-7.47118 3.29687,-16.56671 7.49829,-20.6838c5.79764,-5.6832 17.24335,-4.74252 26.37201,-1.55206c0.28311,-3.07702 0.90152,-5.82074 1.29305,-8.78933c-14.97248,-2.44556 -29.18099,-0.92461 -36.71441,6.98026c-7.37381,7.73823 -12.20869,25.52371 -8.79134,36.71442c4.00062,13.09515 21.93468,13.80693 36.45741,8.79134c0.6415,-2.63228 0.98183,-5.56675 1.55106,-8.27432c-7.935,4.1231 -23.10526,6.26547 -26.63204,-2.84411zm-6.20423,-41.10959c-9.85851,-3.98155 -17.60778,2.74673 -21.20082,9.04935c0.81418,-2.80395 1.1505,-6.08778 1.80907,-9.04935l-9.82538,0c-2.40138,18.62777 -5.94221,36.11608 -9.30736,53.77908l11.11843,0c1.55809,-10.48496 2.23072,-24.61716 5.68722,-34.64634c2.76279,-8.0143 9.99303,-14.84197 20.42579,-11.11743c0.14657,-2.95654 0.99288,-5.21336 1.29305,-8.01531zm-179.17691,-21.71883c-1.58821,10.30525 -3.37719,20.40972 -5.1712,30.50917c-11.51799,0.12148 -23.27793,0.56923 -34.38733,-0.25901c2.0982,-9.87959 3.60308,-20.35451 5.68722,-30.25016l-12.40948,0c-4.44335,25.20545 -8.48414,50.81148 -13.44451,75.49791l12.66848,0c1.98777,-12.66447 3.84603,-25.45744 6.46325,-37.49045c10.8022,-0.26604 23.74877,-0.72985 34.12932,0.25901c-2.14036,12.51087 -4.72646,24.575 -6.72226,37.23144l12.66949,0c4.0699,-25.57691 8.35965,-50.93497 13.44452,-75.49791l-12.9275,0zm31.54321,11.37643c2.21666,-1.52596 5.07081,-8.48112 1.81008,-11.37643c-1.03304,-0.91658 -2.76179,-1.18262 -5.1712,-0.77503c-2.23574,0.37747 -3.52176,1.13644 -4.39517,2.32608c-1.40549,1.91348 -2.69252,7.68201 -0.51803,9.82538c2.11828,2.08716 6.86381,0.9708 8.27432,0l0,0z"/>
  </g>
 </g>
</svg>