<svg width="750" height="470" xmlns="http://www.w3.org/2000/svg" version="1.1">
 <desc>Created with Sketch.</desc>
 <defs>
  <linearGradient id="linearGradient-1" y2="49.9998574%" x2="99.9743153%" y1="49.9998574%" x1="0.031607858%">
   <stop offset="0%" stop-color="#007B40"/>
   <stop offset="100%" stop-color="#55B330"/>
  </linearGradient>
  <linearGradient id="linearGradient-2" y2="49.999826%" x2="99.9860086%" y1="49.999826%" x1="0.471693172%">
   <stop offset="0%" stop-color="#1D2970"/>
   <stop offset="100%" stop-color="#006DBA"/>
  </linearGradient>
  <linearGradient id="linearGradient-3" y2="50.0008964%" x2="99.9860003%" y1="50.0008964%" x1="0.113880772%">
   <stop offset="0%" stop-color="#6E2B2F"/>
   <stop offset="100%" stop-color="#E30138"/>
  </linearGradient>
 </defs>
 <g>
  <title>Layer 1</title>
  <g fill-rule="evenodd" fill="none" id="Page-1">
   <g fill-rule="nonzero" id="jcb">
    <rect rx="40" height="471" width="750" y="0" x="0" fill="#0E4C96" id="Rectangle-1"/>
    <path fill="#FFFFFF" id="path3494" d="m617.24318,346.76628c0,41.61461 -33.72829,75.35969 -75.35969,75.35969l-409.12667,0l0,-297.88105c0,-41.62624 33.73303,-75.37046 75.36486,-75.37046l409.1215,-0.00043l-0.00043,297.89225l0.00043,0z"/>
    <path fill="url(#linearGradient-1)" id="path3496" d="m483.85887,242.0448c11.68383,0.25348 23.43732,-0.51599 35.07713,0.40008c11.78724,2.2008 14.62791,20.04299 4.15634,25.88763c-7.14159,3.84961 -15.63284,1.43219 -23.37901,2.1137l-15.85446,0l0,-28.40141zm41.83296,-32.14431c2.59666,9.16419 -6.23793,17.39163 -15.06591,16.13008l-26.76705,0c0.18489,-8.64213 -0.36752,-18.0216 0.27218,-26.20891c10.72389,0.30173 21.54853,-0.61581 32.20934,0.48019c4.58141,1.14971 8.41354,4.91586 9.35144,9.59864zm64.42858,-135.90326c0.49746,17.50122 0.07106,35.92642 0.21318,53.78296c-0.03445,72.59617 0.07235,145.19398 -0.05469,217.78911c-0.46848,27.20729 -24.58238,50.84438 -51.60015,51.38739c-27.04583,0.11176 -54.09445,0.01594 -81.14135,0.04781l0,-109.75121c29.4696,-0.15349 58.95864,0.30771 88.41612,-0.2317c13.6672,-0.85882 28.63251,-9.8759 29.26976,-24.91422c1.61038,-15.10189 -12.63115,-25.55018 -26.15218,-27.20169c-5.19833,-0.13514 -5.04397,-1.51483 0,-2.11671c12.89197,-2.78649 23.01958,-16.13318 19.22569,-29.49874c-3.23627,-14.05786 -18.77295,-19.49881 -31.69642,-19.47246c-26.35182,-0.17916 -52.70907,-0.02541 -79.06297,-0.07666c0.17119,-20.4887 -0.35448,-41.00046 0.28531,-61.47375c2.08765,-26.71598 26.80589,-48.74783 53.44705,-48.2697c26.28341,-0.00029 52.56798,0.00057 78.85065,-0.00043z"/>
    <path fill="url(#linearGradient-2)" id="path3498" d="m159.74043,125.0405c0.67326,-27.16384 24.88819,-50.61147 51.87437,-51.00796c26.94469,-0.08257 53.8914,-0.01163 80.83687,-0.03531c-0.07403,90.88526 0.14823,181.77644 -0.11137,272.65799c-1.038,26.83358 -24.98975,49.83344 -51.67894,50.30707c-26.99634,0.09867 -53.99508,0.01378 -80.99235,0.04221l0,-113.45362c26.22261,6.19461 53.72213,8.83164 80.4734,4.72136c15.9921,-2.57487 33.48752,-10.42421 38.90185,-27.01467c3.98586,-14.1913 1.74146,-29.12597 2.33377,-43.69111l0,-33.82492l-46.29678,0c-0.20814,22.3706 0.42601,44.78091 -0.3351,67.12557c-1.2483,13.7341 -14.846,22.45989 -27.79972,21.99469c-16.06668,0.16873 -47.89888,-11.64 -47.89888,-11.64c-0.08006,-41.917 0.46676,-94.40742 0.69288,-136.1813z"/>
    <path fill="url(#linearGradient-3)" id="path3500" d="m309.71999,197.39014c-2.4342,0.51724 -0.49085,-8.30068 -1.11369,-11.64618c0.16593,-21.15032 -0.34626,-42.32301 0.28342,-63.45813c2.08282,-26.82875 26.99154,-48.91572 53.73903,-48.28817l78.76581,0c-0.0739,90.88469 0.14793,181.77528 -0.11115,272.65627c-1.039,26.8341 -24.99207,49.83317 -51.68132,50.30836c-26.99749,0.0997 -53.99738,0.01421 -80.99579,0.04264l0,-124.29731c18.44011,15.12823 43.49944,17.48463 66.47165,17.52586c17.31706,-0.00602 34.53391,-2.67562 51.35019,-6.67055l0,-22.77263c-18.95348,9.44631 -41.23333,15.44552 -62.24339,10.01767c-14.6557,-3.6506 -25.29386,-17.81129 -25.05624,-32.93577c-1.6985,-15.72852 7.52412,-32.33531 22.98173,-37.01135c19.19068,-6.00831 40.10755,-1.4124 58.0961,6.39794c3.85419,2.01816 7.76432,4.52155 6.2218,-1.92075l0,-17.89968c-30.08456,-7.15741 -62.1015,-9.79196 -92.3287,-2.00474c-8.74825,2.46815 -17.27125,6.21103 -24.37945,11.95652z"/>
   </g>
  </g>
 </g>
</svg>