<svg width="750" height="470" xmlns="http://www.w3.org/2000/svg" version="1.1">
 <desc>Created with Sketch.</desc>

 <g>
  <title>Layer 1</title>
  <g fill-rule="evenodd" fill="none" id="Page-1">
   <g fill-rule="nonzero" id="maestro">
    <rect rx="40" height="471" width="750" y="0" x="0" fill="#000000" id="Rectangle-1"/>
    <g id="Group">
     <path fill="#FFFFFF" id="Shape" d="m279.8,421.77l0,-24.77c0,-9.35 -6,-15.64 -15.55,-15.72c-5,-0.08 -10.26,1.49 -13.9,7c-2.73,-4.38 -7,-7 -13.07,-7c-4.62719,-0.23227 -9.032,2.00057 -11.58,5.87l0,-4.88l-8.61,0l0,39.55l8.69,0l0,-21.97c0,-6.87 3.81,-10.51 9.68,-10.51c5.71,0 8.61,3.72 8.61,10.42l0,22l8.69,0l0,-21.91c0,-6.87 4,-10.51 9.68,-10.51c5.87,0 8.69,3.72 8.69,10.42l0,22l8.67,0.01zm48.48,-19.77l0,-19.77l-8.61,0l0,4.77c-2.73,-3.56 -6.87,-5.79 -12.49,-5.79c-11.09,0 -19.77,8.69 -19.77,20.77c0,12.08 8.69,20.77 19.77,20.77c5.63,0 9.76,-2.23 12.49,-5.79l0,4.8l8.61,0l0,-19.76zm-32,0c0,-6.95 4.55,-12.66 12,-12.66c7.12,0 11.91,5.46 11.91,12.66c0,7.2 -4.8,12.66 -11.91,12.66c-7.47,0 -12.02,-5.71 -12.02,-12.66l0.02,0zm216.12,-20.81c2.9066,-0.02864 5.79074,0.5115 8.49,1.59c2.51472,1.00465 4.808,2.49274 6.75,4.38c1.91306,1.87576 3.42974,4.11677 4.46,6.59c2.146,5.29759 2.146,11.22241 0,16.52c-1.03026,2.47323 -2.54694,4.71424 -4.46,6.59c-1.94168,1.88767 -4.23504,3.37581 -6.75,4.38c-5.46684,2.12826 -11.53317,2.12826 -17,0c-2.5105,-1.00137 -4.79783,-2.49001 -6.73,-4.38c-1.90151,-1.8812 -3.41068,-4.12116 -4.44,-6.59c-2.146,-5.29759 -2.146,-11.22241 0,-16.52c1.02979,-2.46859 2.53889,-4.70846 4.44,-6.59c1.93233,-1.88979 4.21962,-3.37839 6.73,-4.38c2.70549,-1.08107 5.59668,-1.62126 8.51,-1.59zm0,8.14c-1.68178,-0.01456 -3.35004,0.30142 -4.91,0.93c-1.47025,0.59036 -2.80425,1.47516 -3.92,2.6c-1.12291,1.14808 -2.00666,2.5077 -2.6,4c-1.26573,3.30978 -1.26573,6.97022 0,10.28c0.59286,1.49254 1.47668,2.85226 2.6,4c1.11575,1.12484 2.44975,2.00964 3.92,2.6c3.15949,1.23928 6.67051,1.23928 9.83,0c1.47428,-0.5939 2.81415,-1.47808 3.94,-2.6c1.13283,-1.14407 2.02385,-2.50441 2.62,-4c1.26573,-3.30978 1.26573,-6.97022 0,-10.28c-0.59615,-1.49559 -1.48717,-2.85593 -2.62,-4c-1.12585,-1.12192 -2.46572,-2.0061 -3.94,-2.6c-1.56239,-0.63329 -3.23419,-0.9527 -4.92,-0.94l0,0.01zm-137.3,12.67c-0.08,-12.33 -7.69,-20.77 -18.78,-20.77c-11.58,0 -19.69,8.44 -19.69,20.77c0,12.58 8.44,20.77 20.27,20.77c6,0 11.42,-1.49 16.22,-5.54l-4.22,-6.37c-3.26674,2.61965 -7.31311,4.07634 -11.5,4.14c-5.54,0 -10.59,-2.56 -11.83,-9.68l29.37,0c0.06,-1.09 0.16,-2.16 0.16,-3.32zm-29.45,-3.47c0.91,-5.71 4.38,-9.6 10.51,-9.6c5.54,0 9.1,3.47 10,9.6l-20.51,0zm65.69,-6.2c-3.7572,-2.16445 -8.00444,-3.33468 -12.34,-3.4c-4.72,0 -7.53,1.74 -7.53,4.63c0,2.65 3,3.39 6.7,3.89l4.05,0.58c8.61,1.24 13.82,4.88 13.82,11.83c0,7.53 -6.62,12.91 -18,12.91c-6.45,0 -12.41,-1.66 -17.13,-5.13l4.05,-6.7c3.79779,2.8177 8.43304,4.27591 13.16,4.14c5.87,0 9,-1.74 9,-4.8c0,-2.23 -2.23,-3.47 -6.95,-4.14l-4.05,-0.58c-8.85,-1.24 -13.65,-5.21 -13.65,-11.67c0,-7.86 6.45,-12.66 16.46,-12.66c6.29,0 12,1.41 16.13,4.14l-3.72,6.96zm41.35,-2.23l-14.07,0l0,17.9c0,4 1.41,6.62 5.71,6.62c2.68436,-0.08825 5.30256,-0.85547 7.61,-2.23l2.48,7.36c-3.22752,2.0116 -6.95693,3.0722 -10.76,3.06c-10.18,0 -13.73,-5.46 -13.73,-14.65l0,-18l-8,0l0,-7.86l8,0l0,-12l8.69,0l0,12l14.06,0l0.01,7.8zm29.78,-8.85c2.08651,0.01001 4.15609,0.37523 6.12,1.08l-2.65,8.11c-1.7101,-0.68398 -3.53835,-1.0238 -5.38,-1c-5.63,0 -8.44,3.64 -8.44,10.18l0,22.17l-8.6,0l0,-39.56l8.48,0l0,4.77c2.14973,-3.6938 6.14803,-5.91551 10.42,-5.79l0.05,0.04z"/>
     <g id="_Group_">
      <rect height="234.51" width="130.5" y="80.39" x="309.95" fill="#7673C0" id="Rectangle-path"/>
      <path fill="#EB001B" id="_Path_" d="m318.24,197.64c-0.03486,-45.77046 20.98539,-89.01316 57,-117.26c-61.14703,-48.06182 -148.96228,-41.06579 -201.72836,16.07124c-52.76608,57.13702 -52.76608,145.2305 0,202.36753c52.76608,57.13702 140.58133,64.13305 201.72836,16.07123c-36.01185,-28.24467 -57.03179,-71.48305 -57,-117.25z"/>
      <path fill="#00A1DF" id="Shape" d="m616.5,197.64c0.00103,57.09874 -32.59844,109.18636 -83.95444,134.14286c-51.356,24.95651 -112.45322,18.4009 -157.34556,-16.88286c35.96658,-28.27981 56.96472,-71.50193 56.96472,-117.255c0,-45.75306 -20.99814,-88.97519 -56.96472,-117.255c44.89092,-35.28264 105.98584,-41.83904 157.34106,-16.88505c51.35522,24.954 83.95615,77.03811 83.95894,134.13505z"/>
     </g>
    </g>
   </g>
  </g>
 </g>
</svg>